<svg width="1920" height="1080" viewBox="0 0 1920 1080" fill="none" xmlns="http://www.w3.org/2000/svg">
  <!-- Background gradient -->
  <defs>
    <linearGradient id="bgGradient" x1="0%" y1="0%" x2="100%" y2="100%">
      <stop offset="0%" style="stop-color:#f8fafc;stop-opacity:1" />
      <stop offset="50%" style="stop-color:#e2e8f0;stop-opacity:0.5" />
      <stop offset="100%" style="stop-color:#cbd5e1;stop-opacity:0.3" />
    </linearGradient>
  </defs>
  
  <!-- Background -->
  <rect width="1920" height="1080" fill="url(#bgGradient)"/>
  
  <!-- Subtle tech pattern -->
  <g opacity="0.1">
    <!-- Grid pattern -->
    <path d="M0 0 L1920 0 M0 100 L1920 100 M0 200 L1920 200 M0 300 L1920 300 M0 400 L1920 400 M0 500 L1920 500 M0 600 L1920 600 M0 700 L1920 700 M0 800 L1920 800 M0 900 L1920 900 M0 1000 L1920 1000" stroke="#3b82f6" stroke-width="1"/>
    <path d="M0 0 L0 1080 M100 0 L100 1080 M200 0 L200 1080 M300 0 L300 1080 M400 0 L400 1080 M500 0 L500 1080 M600 0 L600 1080 M700 0 L700 1080 M800 0 L800 1080 M900 0 L900 1080 M1000 0 L1000 1080" stroke="#3b82f6" stroke-width="1"/>
    
    <!-- Floating elements -->
    <circle cx="200" cy="200" r="3" fill="#3b82f6"/>
    <circle cx="800" cy="300" r="2" fill="#8b5cf6"/>
    <circle cx="1200" cy="400" r="4" fill="#06b6d4"/>
    <circle cx="400" cy="600" r="3" fill="#10b981"/>
    <circle cx="1000" cy="700" r="2" fill="#f59e0b"/>
    <circle cx="1600" cy="500" r="3" fill="#ef4444"/>
    
    <!-- Tech icons -->
    <g transform="translate(1500, 200)">
      <rect x="0" y="0" width="20" height="20" rx="4" fill="#3b82f6" opacity="0.3"/>
      <rect x="5" y="5" width="10" height="10" rx="2" fill="#3b82f6" opacity="0.5"/>
    </g>
    
    <g transform="translate(200, 800)">
      <circle cx="10" cy="10" r="10" fill="#8b5cf6" opacity="0.3"/>
      <circle cx="10" cy="10" r="5" fill="#8b5cf6" opacity="0.5"/>
    </g>
  </g>
</svg> 